<svg width="44" height="41" viewBox="0 0 44 41" fill="none" xmlns="http://www.w3.org/2000/svg">
<path d="M42.8756 5.07944L39.4778 1.25278C38.8178 0.478333 37.8156 0 36.6667 0H7.33333C6.18444 0 5.18222 0.478333 4.49778 1.25278L1.12444 5.07944C0.415556 5.85389 0 6.87889 0 7.97222V36.4444C0 38.95 2.2 41 4.88889 41H39.1111C41.8 41 44 38.95 44 36.4444V7.97222C44 6.87889 43.5844 5.85389 42.8756 5.07944ZM22 33.0278L8.55556 20.5H17.1111V15.9444H26.8889V20.5H35.4444L22 33.0278ZM5.18222 4.55556L7.16222 2.27778H36.4956L38.7933 4.55556H5.18222Z" fill="black"/>
</svg>
